<svg xmlns="http://www.w3.org/2000/svg" width="640" height="360" viewBox="0 0 640 360" role="img" aria-label="Image viewer: UMAP (viridis) with letter markers and 3 by 3 particle grid">
  <defs>
    <linearGradient id="vbg" x1="0%" y1="0%" x2="100%" y2="100%">
      <stop offset="0%" style="stop-color:#faf8f4"/>
      <stop offset="100%" style="stop-color:#f0ebe3"/>
    </linearGradient>
    <filter id="vsh" x="-15%" y="-15%" width="130%" height="130%">
      <feDropShadow dx="0" dy="2" stdDeviation="3" flood-opacity="0.18"/>
    </filter>
    <filter id="cryoGrain0" x="-20%" y="-20%" width="140%" height="140%">
      <feTurbulence type="fractalNoise" baseFrequency="0.45" numOctaves="4" seed="11" result="t"/>
      <feColorMatrix in="t" type="matrix"
        values="0 0 0 0 0.52  0 0 0 0 0.52  0 0 0 0 0.55  0 0 0 0.55 0" result="g"/>
      <feBlend in="SourceGraphic" in2="g" mode="soft-light"/>
    </filter>
    <filter id="cryoGrain1" x="-20%" y="-20%" width="140%" height="140%">
      <feTurbulence type="fractalNoise" baseFrequency="0.45" numOctaves="4" seed="12" result="t"/>
      <feColorMatrix in="t" type="matrix"
        values="0 0 0 0 0.52  0 0 0 0 0.52  0 0 0 0 0.55  0 0 0 0.55 0" result="g"/>
      <feBlend in="SourceGraphic" in2="g" mode="soft-light"/>
    </filter>
    <filter id="cryoGrain2" x="-20%" y="-20%" width="140%" height="140%">
      <feTurbulence type="fractalNoise" baseFrequency="0.45" numOctaves="4" seed="13" result="t"/>
      <feColorMatrix in="t" type="matrix"
        values="0 0 0 0 0.52  0 0 0 0 0.52  0 0 0 0 0.55  0 0 0 0.55 0" result="g"/>
      <feBlend in="SourceGraphic" in2="g" mode="soft-light"/>
    </filter>
    <filter id="cryoGrain3" x="-20%" y="-20%" width="140%" height="140%">
      <feTurbulence type="fractalNoise" baseFrequency="0.45" numOctaves="4" seed="14" result="t"/>
      <feColorMatrix in="t" type="matrix"
        values="0 0 0 0 0.52  0 0 0 0 0.52  0 0 0 0 0.55  0 0 0 0.55 0" result="g"/>
      <feBlend in="SourceGraphic" in2="g" mode="soft-light"/>
    </filter>
    <filter id="cryoGrain4" x="-20%" y="-20%" width="140%" height="140%">
      <feTurbulence type="fractalNoise" baseFrequency="0.45" numOctaves="4" seed="15" result="t"/>
      <feColorMatrix in="t" type="matrix"
        values="0 0 0 0 0.52  0 0 0 0 0.52  0 0 0 0 0.55  0 0 0 0.55 0" result="g"/>
      <feBlend in="SourceGraphic" in2="g" mode="soft-light"/>
    </filter>
    <filter id="cryoGrain5" x="-20%" y="-20%" width="140%" height="140%">
      <feTurbulence type="fractalNoise" baseFrequency="0.45" numOctaves="4" seed="16" result="t"/>
      <feColorMatrix in="t" type="matrix"
        values="0 0 0 0 0.52  0 0 0 0 0.52  0 0 0 0 0.55  0 0 0 0.55 0" result="g"/>
      <feBlend in="SourceGraphic" in2="g" mode="soft-light"/>
    </filter>
    <filter id="cryoGrain6" x="-20%" y="-20%" width="140%" height="140%">
      <feTurbulence type="fractalNoise" baseFrequency="0.45" numOctaves="4" seed="17" result="t"/>
      <feColorMatrix in="t" type="matrix"
        values="0 0 0 0 0.52  0 0 0 0 0.52  0 0 0 0 0.55  0 0 0 0.55 0" result="g"/>
      <feBlend in="SourceGraphic" in2="g" mode="soft-light"/>
    </filter>
    <filter id="cryoGrain7" x="-20%" y="-20%" width="140%" height="140%">
      <feTurbulence type="fractalNoise" baseFrequency="0.45" numOctaves="4" seed="18" result="t"/>
      <feColorMatrix in="t" type="matrix"
        values="0 0 0 0 0.52  0 0 0 0 0.52  0 0 0 0 0.55  0 0 0 0.55 0" result="g"/>
      <feBlend in="SourceGraphic" in2="g" mode="soft-light"/>
    </filter>
    <filter id="cryoGrain8" x="-20%" y="-20%" width="140%" height="140%">
      <feTurbulence type="fractalNoise" baseFrequency="0.45" numOctaves="4" seed="19" result="t"/>
      <feColorMatrix in="t" type="matrix"
        values="0 0 0 0 0.52  0 0 0 0 0.52  0 0 0 0 0.55  0 0 0 0.55 0" result="g"/>
      <feBlend in="SourceGraphic" in2="g" mode="soft-light"/>
    </filter>
  </defs>
  <rect width="640" height="360" fill="url(#vbg)"/>
  <rect x="10" y="14" width="318" height="332" rx="5" fill="#ffffff" stroke="#243b53" stroke-opacity="0.16" filter="url(#vsh)"/>
  <g stroke="#c5cad3" stroke-opacity="0.5" stroke-width="0.85">
    <line x1="10" y1="180" x2="328" y2="180"/>
    <line x1="169" y1="14" x2="169" y2="346"/>
  </g>
  <text x="22" y="34" font-family="system-ui,Segoe UI,sans-serif" font-size="11" font-weight="700" fill="#243b53">UMAP2</text>
  <text x="169" y="326" text-anchor="middle" font-family="system-ui,Segoe UI,sans-serif" font-size="11" font-weight="700" fill="#243b53">UMAP1</text>
  <g>
    <circle cx="200.1" cy="198.3" r="1.2" fill="#3a5088" fill-opacity="0.5"/>
    <circle cx="221.6" cy="136.1" r="1.9" fill="#44337e" fill-opacity="0.5"/>
    <circle cx="262.3" cy="72.0" r="1.2" fill="#440154" fill-opacity="0.5"/>
    <circle cx="267.7" cy="143.0" r="1.5" fill="#440154" fill-opacity="0.5"/>
    <circle cx="204.0" cy="224.3" r="1.7" fill="#3c4b87" fill-opacity="0.5"/>
    <circle cx="90.7" cy="278.3" r="1.6" fill="#3fd382" fill-opacity="0.5"/>
    <circle cx="242.4" cy="95.8" r="2.4" fill="#441061" fill-opacity="0.5"/>
    <circle cx="271.6" cy="128.9" r="1.7" fill="#440154" fill-opacity="0.5"/>
    <circle cx="191.3" cy="136.3" r="1.4" fill="#355c8b" fill-opacity="0.5"/>
    <circle cx="144.2" cy="192.7" r="2.0" fill="#22938a" fill-opacity="0.5"/>
    <circle cx="215.0" cy="213.4" r="2.2" fill="#423d83" fill-opacity="0.5"/>
    <circle cx="271.2" cy="117.5" r="2.5" fill="#440154" fill-opacity="0.5"/>
    <circle cx="128.1" cy="272.6" r="1.3" fill="#2ca581" fill-opacity="0.5"/>
    <circle cx="260.7" cy="146.0" r="1.9" fill="#440154" fill-opacity="0.5"/>
    <circle cx="277.1" cy="141.5" r="2.0" fill="#440154" fill-opacity="0.5"/>
    <circle cx="105.9" cy="262.4" r="2.1" fill="#38c07c" fill-opacity="0.5"/>
    <circle cx="230.6" cy="218.2" r="2.6" fill="#442471" fill-opacity="0.5"/>
    <circle cx="251.4" cy="136.4" r="2.2" fill="#440154" fill-opacity="0.5"/>
    <circle cx="209.2" cy="253.6" r="1.6" fill="#3f4485" fill-opacity="0.5"/>
    <circle cx="251.9" cy="132.4" r="1.8" fill="#440154" fill-opacity="0.5"/>
    <circle cx="242.4" cy="70.9" r="2.3" fill="#441061" fill-opacity="0.5"/>
    <circle cx="250.6" cy="104.1" r="2.5" fill="#440355" fill-opacity="0.5"/>
    <circle cx="263.3" cy="119.9" r="2.5" fill="#440154" fill-opacity="0.5"/>
    <circle cx="194.4" cy="188.4" r="1.8" fill="#37588a" fill-opacity="0.5"/>
    <circle cx="273.4" cy="230.6" r="1.3" fill="#440154" fill-opacity="0.5"/>
    <circle cx="249.6" cy="88.3" r="1.9" fill="#440457" fill-opacity="0.5"/>
    <circle cx="125.2" cy="155.5" r="1.8" fill="#2da97f" fill-opacity="0.5"/>
    <circle cx="241.6" cy="230.1" r="2.2" fill="#441162" fill-opacity="0.5"/>
    <circle cx="246.8" cy="201.0" r="1.2" fill="#44095b" fill-opacity="0.5"/>
    <circle cx="132.5" cy="279.8" r="2.4" fill="#29a083" fill-opacity="0.5"/>
    <circle cx="224.9" cy="140.9" r="2.1" fill="#442d79" fill-opacity="0.5"/>
    <circle cx="239.2" cy="85.9" r="1.4" fill="#441565" fill-opacity="0.5"/>
    <circle cx="190.3" cy="130.0" r="1.3" fill="#355d8b" fill-opacity="0.5"/>
    <circle cx="257.9" cy="67.6" r="2.5" fill="#440154" fill-opacity="0.5"/>
    <circle cx="112.1" cy="185.3" r="1.7" fill="#35b879" fill-opacity="0.5"/>
    <circle cx="197.3" cy="219.1" r="2.7" fill="#385489" fill-opacity="0.5"/>
    <circle cx="233.4" cy="139.0" r="1.3" fill="#441f6d" fill-opacity="0.5"/>
    <circle cx="211.5" cy="217.0" r="1.4" fill="#404185" fill-opacity="0.5"/>
    <circle cx="294.9" cy="117.8" r="1.3" fill="#440154" fill-opacity="0.5"/>
    <circle cx="187.7" cy="185.5" r="2.7" fill="#33618c" fill-opacity="0.5"/>
    <circle cx="127.7" cy="220.3" r="1.7" fill="#2ca681" fill-opacity="0.5"/>
    <circle cx="283.6" cy="118.3" r="2.3" fill="#440154" fill-opacity="0.5"/>
    <circle cx="207.3" cy="215.2" r="2.7" fill="#3e4786" fill-opacity="0.5"/>
    <circle cx="133.9" cy="274.4" r="2.3" fill="#289e84" fill-opacity="0.5"/>
    <circle cx="267.6" cy="100.6" r="1.1" fill="#440154" fill-opacity="0.5"/>
    <circle cx="252.6" cy="90.9" r="2.2" fill="#440154" fill-opacity="0.5"/>
    <circle cx="113.5" cy="285.9" r="2.7" fill="#34b679" fill-opacity="0.5"/>
    <circle cx="108.8" cy="216.4" r="1.5" fill="#37bc7a" fill-opacity="0.5"/>
    <circle cx="247.9" cy="127.4" r="2.5" fill="#440759" fill-opacity="0.5"/>
    <circle cx="115.3" cy="258.3" r="2.4" fill="#33b47a" fill-opacity="0.5"/>
    <circle cx="276.6" cy="156.0" r="2.4" fill="#440154" fill-opacity="0.5"/>
    <circle cx="150.0" cy="176.4" r="2.4" fill="#228c8c" fill-opacity="0.5"/>
    <circle cx="265.1" cy="232.0" r="1.7" fill="#440154" fill-opacity="0.5"/>
    <circle cx="279.7" cy="206.1" r="1.4" fill="#440154" fill-opacity="0.5"/>
    <circle cx="244.5" cy="155.5" r="2.4" fill="#440d5e" fill-opacity="0.5"/>
    <circle cx="287.1" cy="163.0" r="2.2" fill="#440154" fill-opacity="0.5"/>
    <circle cx="239.9" cy="143.8" r="1.1" fill="#441464" fill-opacity="0.5"/>
    <circle cx="125.0" cy="246.1" r="2.6" fill="#2da97f" fill-opacity="0.5"/>
    <circle cx="272.2" cy="216.7" r="1.4" fill="#440154" fill-opacity="0.5"/>
    <circle cx="253.5" cy="89.1" r="2.0" fill="#440153" fill-opacity="0.5"/>
    <circle cx="261.4" cy="78.1" r="2.6" fill="#440154" fill-opacity="0.5"/>
    <circle cx="230.8" cy="191.3" r="2.5" fill="#442371" fill-opacity="0.5"/>
    <circle cx="276.8" cy="182.7" r="2.0" fill="#440154" fill-opacity="0.5"/>
    <circle cx="186.9" cy="176.2" r="1.4" fill="#33628c" fill-opacity="0.5"/>
    <circle cx="285.3" cy="82.2" r="1.9" fill="#440154" fill-opacity="0.5"/>
    <circle cx="159.0" cy="194.1" r="1.9" fill="#26828c" fill-opacity="0.5"/>
    <circle cx="263.4" cy="141.1" r="2.0" fill="#440154" fill-opacity="0.5"/>
    <circle cx="252.4" cy="142.2" r="1.9" fill="#440154" fill-opacity="0.5"/>
    <circle cx="261.0" cy="225.8" r="1.8" fill="#440154" fill-opacity="0.5"/>
    <circle cx="153.1" cy="216.5" r="2.2" fill="#23888c" fill-opacity="0.5"/>
    <circle cx="238.3" cy="180.2" r="2.6" fill="#441766" fill-opacity="0.5"/>
    <circle cx="195.8" cy="268.1" r="1.5" fill="#385689" fill-opacity="0.5"/>
    <circle cx="279.3" cy="218.2" r="1.3" fill="#440154" fill-opacity="0.5"/>
    <circle cx="262.9" cy="72.3" r="1.5" fill="#440154" fill-opacity="0.5"/>
    <circle cx="277.2" cy="143.4" r="2.5" fill="#440154" fill-opacity="0.5"/>
    <circle cx="280.1" cy="131.0" r="1.3" fill="#440154" fill-opacity="0.5"/>
    <circle cx="143.2" cy="216.3" r="2.6" fill="#239489" fill-opacity="0.5"/>
    <circle cx="233.7" cy="233.9" r="2.4" fill="#441f6d" fill-opacity="0.5"/>
    <circle cx="262.2" cy="116.6" r="1.6" fill="#440154" fill-opacity="0.5"/>
    <circle cx="255.1" cy="137.2" r="1.1" fill="#440154" fill-opacity="0.5"/>
    <circle cx="229.0" cy="131.9" r="1.6" fill="#442673" fill-opacity="0.5"/>
    <circle cx="153.9" cy="162.7" r="2.7" fill="#24888c" fill-opacity="0.5"/>
    <circle cx="206.7" cy="167.6" r="1.5" fill="#3d4886" fill-opacity="0.5"/>
    <circle cx="284.1" cy="92.0" r="1.3" fill="#440154" fill-opacity="0.5"/>
    <circle cx="276.1" cy="216.0" r="1.5" fill="#440154" fill-opacity="0.5"/>
    <circle cx="292.9" cy="122.1" r="2.2" fill="#440154" fill-opacity="0.5"/>
    <circle cx="238.6" cy="133.8" r="1.8" fill="#441666" fill-opacity="0.5"/>
    <circle cx="294.1" cy="128.4" r="2.4" fill="#440154" fill-opacity="0.5"/>
    <circle cx="288.9" cy="71.7" r="2.5" fill="#440154" fill-opacity="0.5"/>
    <circle cx="218.9" cy="188.1" r="2.6" fill="#443781" fill-opacity="0.5"/>
    <circle cx="243.1" cy="117.7" r="1.5" fill="#440f60" fill-opacity="0.5"/>
    <circle cx="245.2" cy="70.0" r="1.4" fill="#440c5d" fill-opacity="0.5"/>
    <circle cx="254.2" cy="140.9" r="1.6" fill="#440154" fill-opacity="0.5"/>
    <circle cx="202.8" cy="166.4" r="1.1" fill="#3b4d87" fill-opacity="0.5"/>
    <circle cx="236.0" cy="138.3" r="2.0" fill="#441b6a" fill-opacity="0.5"/>
    <circle cx="264.9" cy="158.5" r="1.3" fill="#440154" fill-opacity="0.5"/>
    <circle cx="144.7" cy="214.4" r="2.4" fill="#22928a" fill-opacity="0.5"/>
    <circle cx="235.7" cy="202.2" r="2.7" fill="#441b6a" fill-opacity="0.5"/>
    <circle cx="268.2" cy="204.2" r="2.1" fill="#440154" fill-opacity="0.5"/>
    <circle cx="219.8" cy="135.7" r="1.3" fill="#443680" fill-opacity="0.5"/>
    <circle cx="281.7" cy="90.6" r="1.4" fill="#440154" fill-opacity="0.5"/>
    <circle cx="288.0" cy="152.1" r="2.2" fill="#440154" fill-opacity="0.5"/>
    <circle cx="250.3" cy="94.3" r="1.8" fill="#440356" fill-opacity="0.5"/>
    <circle cx="263.1" cy="91.3" r="2.6" fill="#440154" fill-opacity="0.5"/>
    <circle cx="119.2" cy="218.7" r="2.6" fill="#31b07c" fill-opacity="0.5"/>
    <circle cx="257.5" cy="65.1" r="1.7" fill="#440154" fill-opacity="0.5"/>
    <circle cx="235.3" cy="151.1" r="1.9" fill="#441c6b" fill-opacity="0.5"/>
    <circle cx="251.6" cy="74.0" r="1.7" fill="#440154" fill-opacity="0.5"/>
    <circle cx="236.4" cy="95.4" r="1.5" fill="#441a69" fill-opacity="0.5"/>
    <circle cx="155.9" cy="245.1" r="2.2" fill="#25858c" fill-opacity="0.5"/>
    <circle cx="196.1" cy="201.7" r="1.6" fill="#385689" fill-opacity="0.5"/>
    <circle cx="96.5" cy="265.2" r="2.1" fill="#3ccc80" fill-opacity="0.5"/>
    <circle cx="287.6" cy="154.2" r="2.1" fill="#440154" fill-opacity="0.5"/>
    <circle cx="188.4" cy="171.7" r="1.9" fill="#34608c" fill-opacity="0.5"/>
    <circle cx="268.5" cy="214.5" r="2.4" fill="#440154" fill-opacity="0.5"/>
    <circle cx="197.7" cy="236.9" r="2.2" fill="#395489" fill-opacity="0.5"/>
    <circle cx="237.0" cy="78.3" r="1.7" fill="#441968" fill-opacity="0.5"/>
    <circle cx="287.7" cy="120.9" r="2.1" fill="#440154" fill-opacity="0.5"/>
    <circle cx="173.3" cy="213.7" r="1.1" fill="#2c728d" fill-opacity="0.5"/>
    <circle cx="181.1" cy="215.4" r="2.0" fill="#30698d" fill-opacity="0.5"/>
    <circle cx="102.6" cy="243.4" r="1.5" fill="#3ac47d" fill-opacity="0.5"/>
    <circle cx="251.7" cy="137.9" r="1.4" fill="#440154" fill-opacity="0.5"/>
    <circle cx="207.2" cy="214.3" r="1.7" fill="#3e4786" fill-opacity="0.5"/>
    <circle cx="253.4" cy="210.5" r="2.1" fill="#440154" fill-opacity="0.5"/>
    <circle cx="103.9" cy="172.7" r="1.5" fill="#39c27d" fill-opacity="0.5"/>
    <circle cx="130.0" cy="223.1" r="1.1" fill="#2aa382" fill-opacity="0.5"/>
    <circle cx="251.9" cy="132.2" r="2.2" fill="#440154" fill-opacity="0.5"/>
    <circle cx="128.4" cy="217.0" r="1.8" fill="#2ba581" fill-opacity="0.5"/>
    <circle cx="196.9" cy="223.8" r="1.4" fill="#385589" fill-opacity="0.5"/>
    <circle cx="141.4" cy="196.7" r="1.8" fill="#249688" fill-opacity="0.5"/>
    <circle cx="206.3" cy="208.9" r="1.5" fill="#3d4886" fill-opacity="0.5"/>
    <circle cx="294.6" cy="86.1" r="2.0" fill="#440154" fill-opacity="0.5"/>
    <circle cx="268.0" cy="160.3" r="1.3" fill="#440154" fill-opacity="0.5"/>
    <circle cx="117.0" cy="281.0" r="2.2" fill="#32b27b" fill-opacity="0.5"/>
    <circle cx="291.6" cy="113.6" r="1.1" fill="#440154" fill-opacity="0.5"/>
    <circle cx="266.0" cy="110.1" r="1.6" fill="#440154" fill-opacity="0.5"/>
    <circle cx="256.7" cy="96.6" r="2.4" fill="#440154" fill-opacity="0.5"/>
    <circle cx="282.3" cy="148.9" r="1.3" fill="#440154" fill-opacity="0.5"/>
    <circle cx="128.6" cy="282.5" r="1.6" fill="#2ba581" fill-opacity="0.5"/>
    <circle cx="224.3" cy="234.9" r="2.0" fill="#442e7a" fill-opacity="0.5"/>
    <circle cx="227.8" cy="158.9" r="1.2" fill="#442875" fill-opacity="0.5"/>
    <circle cx="287.6" cy="93.6" r="2.6" fill="#440154" fill-opacity="0.5"/>
    <circle cx="251.7" cy="116.1" r="1.4" fill="#440154" fill-opacity="0.5"/>
    <circle cx="280.6" cy="222.8" r="2.4" fill="#440154" fill-opacity="0.5"/>
    <circle cx="200.0" cy="267.9" r="2.0" fill="#3a5088" fill-opacity="0.5"/>
    <circle cx="100.7" cy="242.9" r="1.8" fill="#3ac67e" fill-opacity="0.5"/>
    <circle cx="169.1" cy="189.3" r="1.2" fill="#2b768d" fill-opacity="0.5"/>
    <circle cx="95.3" cy="240.8" r="1.6" fill="#3dcd80" fill-opacity="0.5"/>
    <circle cx="281.6" cy="162.6" r="1.5" fill="#440154" fill-opacity="0.5"/>
    <circle cx="129.6" cy="221.9" r="1.7" fill="#2ba382" fill-opacity="0.5"/>
    <circle cx="245.2" cy="85.8" r="2.5" fill="#440c5d" fill-opacity="0.5"/>
    <circle cx="207.0" cy="225.2" r="2.7" fill="#3e4786" fill-opacity="0.5"/>
    <circle cx="199.0" cy="150.2" r="1.2" fill="#395288" fill-opacity="0.5"/>
    <circle cx="194.1" cy="155.1" r="1.5" fill="#37588a" fill-opacity="0.5"/>
    <circle cx="273.7" cy="208.7" r="1.8" fill="#440154" fill-opacity="0.5"/>
  </g>
  <g>
    <circle cx="200" cy="148" r="12.5" fill="#3a5088" stroke="#ffffff" stroke-width="2.5"/>
    <text x="200" y="151.5" font-family="system-ui,Segoe UI,sans-serif" font-size="10" font-weight="700" fill="#ffffff" text-anchor="middle">A</text>
    <circle cx="222" cy="168" r="12.5" fill="#44327d" stroke="#ffffff" stroke-width="2.5"/>
    <text x="222" y="171.5" font-family="system-ui,Segoe UI,sans-serif" font-size="10" font-weight="700" fill="#ffffff" text-anchor="middle">B</text>
    <circle cx="246" cy="118" r="12.5" fill="#440a5c" stroke="#ffffff" stroke-width="2.5"/>
    <text x="246" y="121.5" font-family="system-ui,Segoe UI,sans-serif" font-size="10" font-weight="700" fill="#ffffff" text-anchor="middle">C</text>
    <circle cx="262" cy="188" r="12.5" fill="#440154" stroke="#ffffff" stroke-width="2.5"/>
    <text x="262" y="191.5" font-family="system-ui,Segoe UI,sans-serif" font-size="10" font-weight="700" fill="#ffffff" text-anchor="middle">D</text>
    <circle cx="282" cy="138" r="12.5" fill="#440154" stroke="#ffffff" stroke-width="2.5"/>
    <text x="282" y="141.5" font-family="system-ui,Segoe UI,sans-serif" font-size="10" font-weight="700" fill="#ffffff" text-anchor="middle">E</text>
    <circle cx="178" cy="205" r="12.5" fill="#2e6d8d" stroke="#ffffff" stroke-width="2.5"/>
    <text x="178" y="208.5" font-family="system-ui,Segoe UI,sans-serif" font-size="10" font-weight="700" fill="#ffffff" text-anchor="middle">F</text>
    <circle cx="148" cy="178" r="12.5" fill="#218e8c" stroke="#ffffff" stroke-width="2.5"/>
    <text x="148" y="181.5" font-family="system-ui,Segoe UI,sans-serif" font-size="10" font-weight="700" fill="#ffffff" text-anchor="middle">G</text>
    <circle cx="118" cy="232" r="12.5" fill="#32b17b" stroke="#ffffff" stroke-width="2.5"/>
    <text x="118" y="235.5" font-family="system-ui,Segoe UI,sans-serif" font-size="10" font-weight="700" fill="#ffffff" text-anchor="middle">H</text>
    <circle cx="98" cy="258" r="12.5" fill="#3cca7f" stroke="#ffffff" stroke-width="2.5"/>
    <text x="98" y="261.5" font-family="system-ui,Segoe UI,sans-serif" font-size="10" font-weight="700" fill="#ffffff" text-anchor="middle">I</text>
  </g>
  <rect x="336" y="14" width="294" height="332" rx="5" fill="#e8e4dc" stroke="#243b53" stroke-opacity="0.2" filter="url(#vsh)"/>
  <text x="483" y="33" text-anchor="middle" font-family="system-ui,Segoe UI,sans-serif" font-size="11" font-weight="700" fill="#243b53">3 × 3 image grid</text>
  <g transform="translate(352, 42)">
    <g transform="translate(0,0)">
      <rect width="76" height="90" rx="3" fill="#eef1f5" stroke="#243b53" stroke-opacity="0.16"/>
      <rect x="0" y="0" width="76" height="17" rx="3" fill="#3a5088"/>
      <text x="8" y="12" font-family="system-ui,Segoe UI,sans-serif" font-size="9" font-weight="700" fill="#ffffff">A</text>
      <text x="72" y="11" text-anchor="end" font-family="system-ui,Segoe UI,sans-serif" font-size="5.5" font-weight="600" fill="#ffffff" fill-opacity="0.9">znorm</text>
      <g filter="url(#cryoGrain0)">
        <rect x="2" y="18" width="72" height="50" fill="#cdd3dc"/>
        <ellipse cx="38" cy="41" rx="20" ry="17" fill="#3a3d44" fill-opacity="0.92"/>
        <ellipse cx="34" cy="37" rx="7" ry="5" fill="#1c1e22" fill-opacity="0.45"/>
        <ellipse cx="44" cy="44" rx="5" ry="4" fill="#b8bec8" fill-opacity="0.35"/>
      </g>
      <rect x="0" y="73" width="76" height="17" fill="#3a5088"/>
      <text x="38" y="84" text-anchor="middle" font-family="system-ui,Segoe UI,sans-serif" font-size="6" font-weight="600" fill="#ffffff">idx: 106295</text>
    </g>
    <g transform="translate(84,0)">
      <rect width="76" height="90" rx="3" fill="#eef1f5" stroke="#243b53" stroke-opacity="0.16"/>
      <rect x="0" y="0" width="76" height="17" rx="3" fill="#44327d"/>
      <text x="8" y="12" font-family="system-ui,Segoe UI,sans-serif" font-size="9" font-weight="700" fill="#ffffff">B</text>
      <text x="72" y="11" text-anchor="end" font-family="system-ui,Segoe UI,sans-serif" font-size="5.5" font-weight="600" fill="#ffffff" fill-opacity="0.9">znorm</text>
      <g filter="url(#cryoGrain1)">
        <rect x="2" y="18" width="72" height="50" fill="#cdd3dc"/>
        <ellipse cx="36" cy="42" rx="21" ry="19" fill="#3a3d44" fill-opacity="0.92"/>
        <ellipse cx="32" cy="38" rx="8" ry="6" fill="#1c1e22" fill-opacity="0.45"/>
        <ellipse cx="46" cy="45" rx="6" ry="5" fill="#b8bec8" fill-opacity="0.35"/>
      </g>
      <rect x="0" y="73" width="76" height="17" fill="#44327d"/>
      <text x="38" y="84" text-anchor="middle" font-family="system-ui,Segoe UI,sans-serif" font-size="6" font-weight="600" fill="#ffffff">idx: 104812</text>
    </g>
    <g transform="translate(168,0)">
      <rect width="76" height="90" rx="3" fill="#eef1f5" stroke="#243b53" stroke-opacity="0.16"/>
      <rect x="0" y="0" width="76" height="17" rx="3" fill="#440a5c"/>
      <text x="8" y="12" font-family="system-ui,Segoe UI,sans-serif" font-size="9" font-weight="700" fill="#ffffff">C</text>
      <text x="72" y="11" text-anchor="end" font-family="system-ui,Segoe UI,sans-serif" font-size="5.5" font-weight="600" fill="#ffffff" fill-opacity="0.9">znorm</text>
      <g filter="url(#cryoGrain2)">
        <rect x="2" y="18" width="72" height="50" fill="#cdd3dc"/>
        <ellipse cx="40" cy="40" rx="19" ry="18" fill="#3a3d44" fill-opacity="0.92"/>
        <ellipse cx="36" cy="36" rx="6" ry="5" fill="#1c1e22" fill-opacity="0.45"/>
        <ellipse cx="42" cy="46" rx="5" ry="5" fill="#b8bec8" fill-opacity="0.35"/>
      </g>
      <rect x="0" y="73" width="76" height="17" fill="#440a5c"/>
      <text x="38" y="84" text-anchor="middle" font-family="system-ui,Segoe UI,sans-serif" font-size="6" font-weight="600" fill="#ffffff">idx: 108441</text>
    </g>
    <g transform="translate(0,98)">
      <rect width="76" height="90" rx="3" fill="#eef1f5" stroke="#243b53" stroke-opacity="0.16"/>
      <rect x="0" y="0" width="76" height="17" rx="3" fill="#440154"/>
      <text x="8" y="12" font-family="system-ui,Segoe UI,sans-serif" font-size="9" font-weight="700" fill="#ffffff">D</text>
      <text x="72" y="11" text-anchor="end" font-family="system-ui,Segoe UI,sans-serif" font-size="5.5" font-weight="600" fill="#ffffff" fill-opacity="0.9">znorm</text>
      <g filter="url(#cryoGrain3)">
        <rect x="2" y="18" width="72" height="50" fill="#cdd3dc"/>
        <ellipse cx="38" cy="43" rx="22" ry="16" fill="#3a3d44" fill-opacity="0.92"/>
        <ellipse cx="35" cy="39" rx="7" ry="4" fill="#1c1e22" fill-opacity="0.45"/>
        <ellipse cx="43" cy="47" rx="6" ry="4" fill="#b8bec8" fill-opacity="0.35"/>
      </g>
      <rect x="0" y="73" width="76" height="17" fill="#440154"/>
      <text x="38" y="84" text-anchor="middle" font-family="system-ui,Segoe UI,sans-serif" font-size="6" font-weight="600" fill="#ffffff">idx: 105003</text>
    </g>
    <g transform="translate(84,98)">
      <rect width="76" height="90" rx="3" fill="#eef1f5" stroke="#243b53" stroke-opacity="0.16"/>
      <rect x="0" y="0" width="76" height="17" rx="3" fill="#440154"/>
      <text x="8" y="12" font-family="system-ui,Segoe UI,sans-serif" font-size="9" font-weight="700" fill="#ffffff">E</text>
      <text x="72" y="11" text-anchor="end" font-family="system-ui,Segoe UI,sans-serif" font-size="5.5" font-weight="600" fill="#ffffff" fill-opacity="0.9">znorm</text>
      <g filter="url(#cryoGrain4)">
        <rect x="2" y="18" width="72" height="50" fill="#cdd3dc"/>
        <ellipse cx="37" cy="42" rx="20" ry="20" fill="#3a3d44" fill-opacity="0.92"/>
        <ellipse cx="33" cy="39" rx="9" ry="6" fill="#1c1e22" fill-opacity="0.45"/>
        <ellipse cx="45" cy="44" rx="5" ry="5" fill="#b8bec8" fill-opacity="0.35"/>
      </g>
      <rect x="0" y="73" width="76" height="17" fill="#440154"/>
      <text x="38" y="84" text-anchor="middle" font-family="system-ui,Segoe UI,sans-serif" font-size="6" font-weight="600" fill="#ffffff">idx: 107228</text>
    </g>
    <g transform="translate(168,98)">
      <rect width="76" height="90" rx="3" fill="#eef1f5" stroke="#243b53" stroke-opacity="0.16"/>
      <rect x="0" y="0" width="76" height="17" rx="3" fill="#2e6d8d"/>
      <text x="8" y="12" font-family="system-ui,Segoe UI,sans-serif" font-size="9" font-weight="700" fill="#ffffff">F</text>
      <text x="72" y="11" text-anchor="end" font-family="system-ui,Segoe UI,sans-serif" font-size="5.5" font-weight="600" fill="#ffffff" fill-opacity="0.9">znorm</text>
      <g filter="url(#cryoGrain5)">
        <rect x="2" y="18" width="72" height="50" fill="#cdd3dc"/>
        <ellipse cx="39" cy="41" rx="21" ry="18" fill="#3a3d44" fill-opacity="0.92"/>
        <ellipse cx="34" cy="38" rx="8" ry="5" fill="#1c1e22" fill-opacity="0.45"/>
        <ellipse cx="44" cy="43" rx="6" ry="5" fill="#b8bec8" fill-opacity="0.35"/>
      </g>
      <rect x="0" y="73" width="76" height="17" fill="#2e6d8d"/>
      <text x="38" y="84" text-anchor="middle" font-family="system-ui,Segoe UI,sans-serif" font-size="6" font-weight="600" fill="#ffffff">idx: 103956</text>
    </g>
    <g transform="translate(0,196)">
      <rect width="76" height="90" rx="3" fill="#eef1f5" stroke="#243b53" stroke-opacity="0.16"/>
      <rect x="0" y="0" width="76" height="17" rx="3" fill="#218e8c"/>
      <text x="8" y="12" font-family="system-ui,Segoe UI,sans-serif" font-size="9" font-weight="700" fill="#ffffff">G</text>
      <text x="72" y="11" text-anchor="end" font-family="system-ui,Segoe UI,sans-serif" font-size="5.5" font-weight="600" fill="#ffffff" fill-opacity="0.9">znorm</text>
      <g filter="url(#cryoGrain6)">
        <rect x="2" y="18" width="72" height="50" fill="#cdd3dc"/>
        <ellipse cx="38" cy="40" rx="19" ry="19" fill="#3a3d44" fill-opacity="0.92"/>
        <ellipse cx="36" cy="37" rx="7" ry="6" fill="#1c1e22" fill-opacity="0.45"/>
        <ellipse cx="42" cy="45" rx="5" ry="4" fill="#b8bec8" fill-opacity="0.35"/>
      </g>
      <rect x="0" y="73" width="76" height="17" fill="#218e8c"/>
      <text x="38" y="84" text-anchor="middle" font-family="system-ui,Segoe UI,sans-serif" font-size="6" font-weight="600" fill="#ffffff">idx: 109102</text>
    </g>
    <g transform="translate(84,196)">
      <rect width="76" height="90" rx="3" fill="#eef1f5" stroke="#243b53" stroke-opacity="0.16"/>
      <rect x="0" y="0" width="76" height="17" rx="3" fill="#32b17b"/>
      <text x="8" y="12" font-family="system-ui,Segoe UI,sans-serif" font-size="9" font-weight="700" fill="#ffffff">H</text>
      <text x="72" y="11" text-anchor="end" font-family="system-ui,Segoe UI,sans-serif" font-size="5.5" font-weight="600" fill="#ffffff" fill-opacity="0.9">znorm</text>
      <g filter="url(#cryoGrain7)">
        <rect x="2" y="18" width="72" height="50" fill="#cdd3dc"/>
        <ellipse cx="36" cy="41" rx="22" ry="18" fill="#3a3d44" fill-opacity="0.92"/>
        <ellipse cx="32" cy="37" rx="8" ry="5" fill="#1c1e22" fill-opacity="0.45"/>
        <ellipse cx="46" cy="46" rx="6" ry="5" fill="#b8bec8" fill-opacity="0.35"/>
      </g>
      <rect x="0" y="73" width="76" height="17" fill="#32b17b"/>
      <text x="38" y="84" text-anchor="middle" font-family="system-ui,Segoe UI,sans-serif" font-size="6" font-weight="600" fill="#ffffff">idx: 104301</text>
    </g>
    <g transform="translate(168,196)">
      <rect width="76" height="90" rx="3" fill="#eef1f5" stroke="#243b53" stroke-opacity="0.16"/>
      <rect x="0" y="0" width="76" height="17" rx="3" fill="#3cca7f"/>
      <text x="8" y="12" font-family="system-ui,Segoe UI,sans-serif" font-size="9" font-weight="700" fill="#ffffff">I</text>
      <text x="72" y="11" text-anchor="end" font-family="system-ui,Segoe UI,sans-serif" font-size="5.5" font-weight="600" fill="#ffffff" fill-opacity="0.9">znorm</text>
      <g filter="url(#cryoGrain8)">
        <rect x="2" y="18" width="72" height="50" fill="#cdd3dc"/>
        <ellipse cx="40" cy="42" rx="20" ry="17" fill="#3a3d44" fill-opacity="0.92"/>
        <ellipse cx="37" cy="38" rx="6" ry="5" fill="#1c1e22" fill-opacity="0.45"/>
        <ellipse cx="41" cy="44" rx="5" ry="5" fill="#b8bec8" fill-opacity="0.35"/>
      </g>
      <rect x="0" y="73" width="76" height="17" fill="#3cca7f"/>
      <text x="38" y="84" text-anchor="middle" font-family="system-ui,Segoe UI,sans-serif" font-size="6" font-weight="600" fill="#ffffff">idx: 106884</text>
    </g>
  </g>
</svg>
