<svg xmlns="http://www.w3.org/2000/svg" width="640" height="360" viewBox="0 0 640 360" role="img" aria-label="Particle selection: UMAP scatter with lasso and polygon selection">
  <defs>
    <linearGradient id="pvBg" x1="0" y1="0" x2="1" y2="1">
      <stop offset="0%" stop-color="#f7f5f0"/>
      <stop offset="100%" stop-color="#ebe6dc"/>
    </linearGradient>
    <filter id="pvCardSh" x="-8%" y="-8%" width="116%" height="116%">
      <feDropShadow dx="0" dy="1" stdDeviation="1.5" flood-opacity="0.12"/>
    </filter>
  </defs>
  <rect width="640" height="360" fill="url(#pvBg)"/>

  <g filter="url(#pvCardSh)">
    <rect x="16" y="20" width="138" height="318" rx="6" fill="#fff" stroke="#243b53" stroke-opacity="0.12"/>
    <rect x="26" y="32" width="118" height="52" rx="4" fill="#f4f6f8" stroke="#243b53" stroke-opacity="0.1"/>
    <text x="32" y="46" font-family="system-ui,Segoe UI,sans-serif" font-size="8" font-weight="700" fill="#243b53">Axes</text>
    <rect x="32" y="52" width="106" height="10" rx="2" fill="#fff" stroke="#c5cdd6"/>
    <rect x="32" y="66" width="106" height="10" rx="2" fill="#fff" stroke="#c5cdd6"/>
    <rect x="26" y="92" width="118" height="40" rx="4" fill="#f4f6f8" stroke="#243b53" stroke-opacity="0.1"/>
    <text x="32" y="106" font-family="system-ui,Segoe UI,sans-serif" font-size="8" font-weight="700" fill="#243b53">Color scale</text>
    <rect x="32" y="112" width="106" height="10" rx="2" fill="#fff" stroke="#c5cdd6"/>
    <rect x="26" y="140" width="118" height="36" rx="4" fill="#f4f6f8" stroke="#243b53" stroke-opacity="0.1"/>
    <rect x="36" y="154" width="98" height="14" rx="3" fill="#243b53"/>
    <text x="85" y="164" text-anchor="middle" font-family="system-ui,Segoe UI,sans-serif" font-size="7" font-weight="600" fill="#fff">Clear selection</text>
    <rect x="26" y="184" width="118" height="40" rx="4" fill="#f4f6f8" stroke="#243b53" stroke-opacity="0.1"/>
    <text x="32" y="200" font-family="system-ui,Segoe UI,sans-serif" font-size="7" font-weight="700" fill="#243b53">Current selection</text>
    <text x="32" y="214" font-family="system-ui,Segoe UI,sans-serif" font-size="6.5" font-weight="700" fill="#1a2838">Selected: 27,513 particles</text>
    <rect x="26" y="232" width="118" height="100" rx="4" fill="#f4f6f8" stroke="#243b53" stroke-opacity="0.1"/>
    <text x="32" y="248" font-family="system-ui,Segoe UI,sans-serif" font-size="7" font-weight="700" fill="#243b53">Save to disk</text>
    <rect x="32" y="256" width="92" height="6" rx="1" fill="#dce2e8"/>
    <rect x="32" y="268" width="80" height="6" rx="1" fill="#dce2e8"/>
    <rect x="32" y="280" width="70" height="6" rx="1" fill="#dce2e8"/>
    <rect x="36" y="296" width="72" height="12" rx="2" fill="#c4703a"/>
    <text x="72" y="305" text-anchor="middle" font-family="system-ui,Segoe UI,sans-serif" font-size="7" font-weight="600" fill="#fff">Save</text>
  </g>

  <rect x="168" y="20" width="456" height="318" rx="6" fill="#fff" stroke="#243b53" stroke-opacity="0.14" filter="url(#pvCardSh)"/>
  <text x="396" y="318" text-anchor="middle" font-family="system-ui,Segoe UI,sans-serif" font-size="9" font-weight="700" fill="#243b53">UMAP1</text>
  <text x="182" y="178" font-family="system-ui,Segoe UI,sans-serif" font-size="9" font-weight="700" fill="#243b53" transform="rotate(-90 182 178)">UMAP2</text>

  <rect x="208" y="48" width="400" height="262" rx="2" fill="#fafbfc" stroke="#e2e6eb"/>
  <g fill="#5a7390" fill-opacity="0.28">
    <circle cx="228.0" cy="95.0" r="1.5"/><circle cx="232.0" cy="92.0" r="1.5"/><circle cx="225.0" cy="100.0" r="1.5"/><circle cx="235.0" cy="98.0" r="1.5"/><circle cx="230.0" cy="104.0" r="1.5"/><circle cx="430.0" cy="78.0" r="1.5"/><circle cx="438.0" cy="82.0" r="1.5"/><circle cx="425.0" cy="85.0" r="1.5"/><circle cx="445.0" cy="88.0" r="1.5"/><circle cx="455.0" cy="95.0" r="1.5"/><circle cx="420.0" cy="92.0" r="1.5"/><circle cx="468.0" cy="102.0" r="1.5"/><circle cx="435.0" cy="98.0" r="1.5"/><circle cx="478.0" cy="110.0" r="1.5"/><circle cx="410.0" cy="88.0" r="1.5"/><circle cx="490.0" cy="118.0" r="1.5"/><circle cx="400.0" cy="95.0" r="1.5"/><circle cx="462.0" cy="125.0" r="1.5"/><circle cx="448.0" cy="115.0" r="1.5"/><circle cx="428.0" cy="108.0" r="1.5"/><circle cx="415.0" cy="102.0" r="1.5"/><circle cx="385.0" cy="92.0" r="1.5"/><circle cx="395.0" cy="100.0" r="1.5"/><circle cx="470.0" cy="135.0" r="1.5"/><circle cx="455.0" cy="130.0" r="1.5"/><circle cx="438.0" cy="128.0" r="1.5"/><circle cx="502.0" cy="128.0" r="1.5"/><circle cx="518.0" cy="138.0" r="1.5"/><circle cx="395.0" cy="110.0" r="1.5"/><circle cx="408.0" cy="118.0" r="1.5"/><circle cx="485.0" cy="145.0" r="1.5"/><circle cx="238.0" cy="262.0" r="1.5"/><circle cx="268.0" cy="268.0" r="1.5"/><circle cx="228.0" cy="275.0" r="1.5"/><circle cx="285.0" cy="275.0" r="1.5"/><circle cx="220.0" cy="285.0" r="1.5"/><circle cx="298.0" cy="282.0" r="1.5"/><circle cx="215.0" cy="268.0" r="1.5"/><circle cx="240.0" cy="288.0" r="1.5"/><circle cx="258.0" cy="278.0" r="1.5"/><circle cx="210.0" cy="255.0" r="1.5"/><circle cx="318.0" cy="288.0" r="1.5"/><circle cx="305.0" cy="292.0" r="1.5"/><circle cx="498.0" cy="248.0" r="1.5"/><circle cx="512.0" cy="255.0" r="1.5"/><circle cx="525.0" cy="245.0" r="1.5"/><circle cx="535.0" cy="258.0" r="1.5"/><circle cx="520.0" cy="268.0" r="1.5"/><circle cx="505.0" cy="275.0" r="1.5"/><circle cx="548.0" cy="250.0" r="1.5"/><circle cx="555.0" cy="268.0" r="1.5"/><circle cx="530.0" cy="278.0" r="1.5"/><circle cx="485.0" cy="262.0" r="1.5"/><circle cx="540.0" cy="285.0" r="1.5"/><circle cx="565.0" cy="275.0" r="1.5"/><circle cx="575.0" cy="260.0" r="1.5"/><circle cx="560.0" cy="245.0" r="1.5"/><circle cx="588.0" cy="268.0" r="1.5"/><circle cx="575.0" cy="288.0" r="1.5"/><circle cx="452.0" cy="205.0" r="1.5"/><circle cx="465.0" cy="198.0" r="1.5"/><circle cx="475.0" cy="215.0" r="1.5"/><circle cx="488.0" cy="208.0" r="1.5"/><circle cx="500.0" cy="222.0" r="1.5"/><circle cx="512.0" cy="232.0" r="1.5"/><circle cx="525.0" cy="218.0" r="1.5"/><circle cx="538.0" cy="228.0" r="1.5"/><circle cx="218.0" cy="188.0" r="1.5"/><circle cx="218.0" cy="218.0" r="1.5"/><circle cx="232.0" cy="245.0" r="1.5"/><circle cx="418.0" cy="250.0" r="1.5"/><circle cx="432.0" cy="258.0" r="1.5"/><circle cx="445.0" cy="265.0" r="1.5"/><circle cx="458.0" cy="272.0" r="1.5"/><circle cx="472.0" cy="278.0" r="1.5"/><circle cx="485.0" cy="285.0" r="1.5"/><circle cx="498.0" cy="292.0" r="1.5"/>
  </g>
  <g fill="#1a2838" fill-opacity="0.92">
    <circle cx="331.1" cy="208.7" r="1.75"/><circle cx="446.5" cy="192.3" r="1.75"/><circle cx="344.7" cy="213.5" r="1.75"/><circle cx="265.6" cy="200.3" r="1.75"/><circle cx="374.5" cy="249.3" r="1.75"/><circle cx="243.4" cy="164.0" r="1.75"/><circle cx="380.4" cy="218.4" r="1.75"/><circle cx="349.7" cy="121.4" r="1.75"/><circle cx="266.9" cy="153.3" r="1.75"/><circle cx="227.8" cy="192.0" r="1.75"/><circle cx="328.2" cy="258.0" r="1.75"/><circle cx="347.4" cy="222.7" r="1.75"/><circle cx="342.7" cy="226.6" r="1.75"/><circle cx="332.3" cy="159.6" r="1.75"/><circle cx="297.5" cy="151.1" r="1.75"/><circle cx="291.1" cy="123.3" r="1.75"/><circle cx="407.9" cy="180.9" r="1.75"/><circle cx="427.5" cy="178.5" r="1.75"/><circle cx="443.1" cy="193.0" r="1.75"/><circle cx="238.3" cy="220.8" r="1.75"/><circle cx="410.9" cy="158.1" r="1.75"/><circle cx="241.7" cy="169.1" r="1.75"/><circle cx="249.3" cy="154.0" r="1.75"/><circle cx="415.4" cy="142.0" r="1.75"/><circle cx="357.2" cy="189.1" r="1.75"/><circle cx="267.1" cy="238.7" r="1.75"/><circle cx="252.5" cy="223.3" r="1.75"/><circle cx="248.9" cy="184.4" r="1.75"/><circle cx="272.5" cy="158.1" r="1.75"/><circle cx="294.8" cy="265.4" r="1.75"/><circle cx="272.0" cy="179.8" r="1.75"/><circle cx="272.6" cy="156.1" r="1.75"/><circle cx="409.5" cy="168.4" r="1.75"/><circle cx="292.9" cy="123.9" r="1.75"/><circle cx="242.5" cy="212.7" r="1.75"/><circle cx="279.9" cy="215.9" r="1.75"/><circle cx="311.4" cy="190.1" r="1.75"/><circle cx="361.0" cy="262.2" r="1.75"/><circle cx="265.1" cy="137.9" r="1.75"/><circle cx="281.5" cy="144.2" r="1.75"/><circle cx="323.5" cy="129.2" r="1.75"/><circle cx="278.7" cy="233.9" r="1.75"/><circle cx="283.3" cy="254.7" r="1.75"/><circle cx="366.3" cy="162.2" r="1.75"/><circle cx="263.3" cy="236.7" r="1.75"/><circle cx="237.2" cy="150.9" r="1.75"/><circle cx="357.3" cy="259.7" r="1.75"/><circle cx="370.7" cy="159.9" r="1.75"/><circle cx="224.5" cy="158.0" r="1.75"/><circle cx="329.5" cy="121.6" r="1.75"/><circle cx="263.5" cy="175.4" r="1.75"/><circle cx="360.4" cy="134.0" r="1.75"/><circle cx="309.0" cy="266.4" r="1.75"/><circle cx="389.5" cy="213.0" r="1.75"/><circle cx="225.6" cy="222.0" r="1.75"/><circle cx="338.4" cy="238.4" r="1.75"/><circle cx="238.8" cy="206.3" r="1.75"/><circle cx="400.7" cy="233.8" r="1.75"/><circle cx="306.5" cy="230.5" r="1.75"/><circle cx="322.5" cy="248.9" r="1.75"/><circle cx="431.7" cy="210.9" r="1.75"/><circle cx="373.3" cy="177.7" r="1.75"/><circle cx="363.0" cy="217.2" r="1.75"/><circle cx="240.0" cy="222.6" r="1.75"/><circle cx="398.6" cy="178.8" r="1.75"/><circle cx="400.2" cy="212.4" r="1.75"/><circle cx="328.2" cy="257.3" r="1.75"/><circle cx="240.9" cy="241.9" r="1.75"/><circle cx="227.7" cy="215.9" r="1.75"/><circle cx="338.1" cy="151.2" r="1.75"/><circle cx="391.3" cy="197.8" r="1.75"/><circle cx="294.1" cy="229.3" r="1.75"/><circle cx="270.0" cy="140.6" r="1.75"/><circle cx="328.5" cy="266.6" r="1.75"/><circle cx="300.4" cy="227.2" r="1.75"/><circle cx="269.0" cy="186.2" r="1.75"/><circle cx="435.8" cy="178.1" r="1.75"/><circle cx="363.1" cy="166.3" r="1.75"/><circle cx="253.7" cy="197.6" r="1.75"/><circle cx="288.1" cy="140.6" r="1.75"/><circle cx="330.7" cy="159.0" r="1.75"/><circle cx="272.8" cy="183.3" r="1.75"/><circle cx="373.5" cy="197.2" r="1.75"/><circle cx="297.6" cy="257.4" r="1.75"/><circle cx="393.8" cy="210.6" r="1.75"/><circle cx="296.0" cy="249.1" r="1.75"/><circle cx="331.7" cy="115.4" r="1.75"/><circle cx="423.4" cy="152.5" r="1.75"/><circle cx="374.3" cy="188.9" r="1.75"/><circle cx="374.5" cy="225.3" r="1.75"/><circle cx="387.9" cy="145.8" r="1.75"/><circle cx="336.7" cy="142.2" r="1.75"/><circle cx="223.0" cy="193.4" r="1.75"/><circle cx="395.1" cy="142.3" r="1.75"/><circle cx="287.0" cy="171.4" r="1.75"/><circle cx="391.0" cy="201.8" r="1.75"/><circle cx="370.7" cy="242.9" r="1.75"/><circle cx="316.7" cy="249.2" r="1.75"/><circle cx="252.2" cy="190.1" r="1.75"/><circle cx="312.6" cy="210.3" r="1.75"/><circle cx="379.8" cy="146.8" r="1.75"/><circle cx="397.0" cy="253.8" r="1.75"/><circle cx="377.4" cy="236.2" r="1.75"/><circle cx="351.8" cy="249.0" r="1.75"/><circle cx="298.8" cy="269.7" r="1.75"/><circle cx="429.8" cy="171.8" r="1.75"/><circle cx="240.7" cy="187.9" r="1.75"/><circle cx="355.0" cy="245.0" r="1.75"/><circle cx="339.7" cy="116.0" r="1.75"/><circle cx="416.1" cy="141.2" r="1.75"/><circle cx="302.4" cy="248.5" r="1.75"/><circle cx="254.8" cy="137.0" r="1.75"/><circle cx="346.8" cy="237.2" r="1.75"/><circle cx="274.6" cy="202.9" r="1.75"/><circle cx="291.4" cy="238.2" r="1.75"/><circle cx="376.7" cy="202.2" r="1.75"/><circle cx="426.8" cy="208.7" r="1.75"/><circle cx="296.7" cy="177.5" r="1.75"/><circle cx="271.4" cy="259.4" r="1.75"/><circle cx="360.6" cy="146.1" r="1.75"/><circle cx="351.5" cy="198.8" r="1.75"/><circle cx="368.5" cy="115.9" r="1.75"/><circle cx="318.4" cy="250.8" r="1.75"/><circle cx="358.1" cy="196.7" r="1.75"/><circle cx="389.5" cy="122.6" r="1.75"/><circle cx="352.2" cy="183.2" r="1.75"/><circle cx="286.3" cy="193.6" r="1.75"/><circle cx="251.5" cy="186.7" r="1.75"/><circle cx="337.0" cy="166.4" r="1.75"/><circle cx="267.3" cy="218.8" r="1.75"/><circle cx="267.9" cy="150.7" r="1.75"/><circle cx="388.5" cy="167.2" r="1.75"/><circle cx="307.4" cy="219.1" r="1.75"/><circle cx="246.1" cy="238.5" r="1.75"/><circle cx="250.5" cy="200.1" r="1.75"/><circle cx="281.7" cy="145.5" r="1.75"/><circle cx="350.2" cy="187.2" r="1.75"/><circle cx="312.3" cy="183.2" r="1.75"/><circle cx="349.9" cy="138.9" r="1.75"/><circle cx="270.4" cy="221.2" r="1.75"/><circle cx="376.6" cy="203.4" r="1.75"/><circle cx="428.7" cy="217.7" r="1.75"/><circle cx="430.0" cy="151.6" r="1.75"/><circle cx="401.6" cy="252.4" r="1.75"/><circle cx="441.3" cy="166.1" r="1.75"/><circle cx="297.5" cy="272.0" r="1.75"/><circle cx="279.0" cy="237.8" r="1.75"/><circle cx="283.9" cy="128.0" r="1.75"/><circle cx="424.0" cy="184.6" r="1.75"/><circle cx="413.7" cy="133.0" r="1.75"/><circle cx="319.0" cy="230.6" r="1.75"/><circle cx="224.8" cy="146.1" r="1.75"/><circle cx="344.1" cy="243.3" r="1.75"/><circle cx="343.4" cy="230.6" r="1.75"/><circle cx="355.4" cy="200.8" r="1.75"/><circle cx="359.6" cy="136.6" r="1.75"/><circle cx="265.6" cy="146.6" r="1.75"/><circle cx="333.5" cy="244.4" r="1.75"/><circle cx="300.4" cy="192.5" r="1.75"/><circle cx="346.5" cy="186.1" r="1.75"/><circle cx="391.9" cy="258.3" r="1.75"/><circle cx="264.8" cy="190.2" r="1.75"/><circle cx="401.3" cy="181.7" r="1.75"/><circle cx="268.2" cy="139.8" r="1.75"/><circle cx="345.8" cy="113.7" r="1.75"/><circle cx="392.8" cy="261.2" r="1.75"/><circle cx="374.4" cy="181.6" r="1.75"/><circle cx="367.1" cy="199.0" r="1.75"/><circle cx="283.6" cy="270.0" r="1.75"/><circle cx="402.5" cy="246.7" r="1.75"/><circle cx="419.7" cy="181.8" r="1.75"/><circle cx="390.4" cy="244.9" r="1.75"/><circle cx="407.6" cy="181.8" r="1.75"/><circle cx="397.2" cy="123.4" r="1.75"/><circle cx="304.0" cy="192.8" r="1.75"/><circle cx="223.0" cy="173.1" r="1.75"/><circle cx="376.7" cy="219.9" r="1.75"/><circle cx="383.4" cy="170.0" r="1.75"/><circle cx="381.8" cy="210.4" r="1.75"/><circle cx="350.8" cy="179.0" r="1.75"/><circle cx="392.0" cy="243.9" r="1.75"/><circle cx="371.0" cy="239.9" r="1.75"/><circle cx="283.2" cy="181.1" r="1.75"/><circle cx="232.8" cy="145.1" r="1.75"/><circle cx="312.3" cy="128.2" r="1.75"/><circle cx="281.8" cy="269.0" r="1.75"/><circle cx="355.0" cy="199.6" r="1.75"/><circle cx="366.6" cy="243.5" r="1.75"/><circle cx="259.5" cy="193.3" r="1.75"/><circle cx="261.8" cy="197.5" r="1.75"/><circle cx="369.9" cy="121.3" r="1.75"/><circle cx="451.7" cy="184.4" r="1.75"/><circle cx="349.3" cy="215.3" r="1.75"/><circle cx="309.9" cy="160.9" r="1.75"/><circle cx="380.7" cy="208.8" r="1.75"/><circle cx="289.8" cy="236.0" r="1.75"/><circle cx="258.7" cy="242.7" r="1.75"/><circle cx="315.8" cy="267.6" r="1.75"/><circle cx="325.5" cy="194.3" r="1.75"/><circle cx="348.5" cy="274.5" r="1.75"/><circle cx="397.2" cy="192.7" r="1.75"/><circle cx="368.1" cy="131.1" r="1.75"/><circle cx="373.1" cy="190.5" r="1.75"/><circle cx="349.6" cy="132.7" r="1.75"/><circle cx="328.8" cy="227.5" r="1.75"/><circle cx="331.9" cy="156.8" r="1.75"/><circle cx="362.9" cy="184.2" r="1.75"/><circle cx="410.7" cy="203.6" r="1.75"/><circle cx="400.1" cy="152.6" r="1.75"/><circle cx="412.3" cy="220.0" r="1.75"/>
  </g>
  <!-- Smooth closed Bézier ~4.5% outside the white polygon (same centroid), Catmull–Rom → cubic -->
  <path fill="none" stroke="#c4703a" stroke-width="2" stroke-dasharray="6 5" stroke-opacity="0.92" stroke-linecap="round" stroke-linejoin="round"
    d="M 218.97,232.46 C 213.42,214.89 214.11,169.38 215.84,151.68 C 217.56,133.99 206.13,133.66 229.32,126.29 C 252.50,118.92 320.58,107.22 354.93,107.48 C 389.27,107.74 415.95,117.49 435.39,127.86 C 454.83,138.22 476.08,147.31 471.55,169.66 C 467.02,192.00 434.64,241.94 408.22,261.93 C 381.80,281.92 339.53,290.42 313.02,289.62 C 286.51,288.82 264.85,266.65 249.17,257.12 C 233.50,247.60 224.53,250.03 218.97,232.46 Z"/>
  <polygon fill="none" stroke="#ffffff" stroke-width="2.2" stroke-dasharray="5 4" stroke-opacity="0.95"
    points="223.4,230.7 220.4,153.4 233.3,129.1 353.5,111.1 430.5,130.6 465.1,170.6 404.5,258.9 313.4,285.4 252.3,254.3"/>
  <g fill="#ffffff" stroke="#243b53" stroke-width="0.6" stroke-opacity="0.35">
    <circle cx="223.4" cy="230.7" r="3.5"/><circle cx="220.4" cy="153.4" r="3.5"/><circle cx="233.3" cy="129.1" r="3.5"/><circle cx="353.5" cy="111.1" r="3.5"/><circle cx="430.5" cy="130.6" r="3.5"/><circle cx="465.1" cy="170.6" r="3.5"/><circle cx="404.5" cy="258.9" r="3.5"/><circle cx="313.4" cy="285.4" r="3.5"/><circle cx="252.3" cy="254.3" r="3.5"/>
  </g>
</svg>
